<svg width="12" height="12" viewBox="0 0 12 12" fill="none" xmlns="http://www.w3.org/2000/svg">
<path fill-rule="evenodd" clip-rule="evenodd" d="M5.375 11C5.375 11.3417 5.65833 11.625 6 11.625C6.34167 11.625 6.625 11.3417 6.625 11V6.625H11C11.3417 6.625 11.625 6.34167 11.625 6C11.625 5.65833 11.3417 5.375 11 5.375H6.625V1C6.625 0.658333 6.34167 0.375 6 0.375C5.65833 0.375 5.375 0.658333 5.375 1V5.375H1C0.658333 5.375 0.375 5.65833 0.375 6C0.375 6.34167 0.658333 6.625 1 6.625H5.375V11Z" fill="white"/>
</svg>
