<svg width="14" height="18" viewBox="0 0 14 18" fill="none" xmlns="http://www.w3.org/2000/svg">
<path fill-rule="evenodd" clip-rule="evenodd" d="M0.125 11.0834C0.125 14.8751 3.20833 17.9584 7 17.9584C10.7917 17.9584 13.875 14.8751 13.875 11.0834V6.91675C13.875 3.12508 10.7917 0.041748 7 0.041748C3.20833 0.041748 0.125 3.12508 0.125 6.91675V11.0834ZM7.625 1.32629C10.4323 1.63848 12.625 4.02796 12.625 6.91675V11.0834C12.625 14.1834 10.1 16.7084 7 16.7084C3.9 16.7084 1.375 14.1834 1.375 11.0834V6.91675C1.375 4.02796 3.56766 1.63848 6.375 1.32629V3.48231C5.64771 3.74046 5.125 4.43575 5.125 5.25008V6.91675C5.125 7.95008 5.96667 8.79175 7 8.79175C8.03333 8.79175 8.875 7.95008 8.875 6.91675V5.25008C8.875 4.43575 8.35229 3.74046 7.625 3.48231V1.32629ZM7 4.62508C6.99995 4.62508 6.99991 4.62508 6.99986 4.62508C6.65825 4.62516 6.375 4.90846 6.375 5.25008V6.91675C6.375 7.25841 6.65833 7.54175 7 7.54175C7.34167 7.54175 7.625 7.25841 7.625 6.91675V5.25008C7.625 4.90841 7.34167 4.62508 7 4.62508Z" fill="#F386B6"/>
</svg>
