<svg width="21" height="22" viewBox="0 0 21 22" fill="none" xmlns="http://www.w3.org/2000/svg">
<path fill-rule="evenodd" clip-rule="evenodd" d="M17.0183 16.5903H6.6641C5.7016 16.5903 4.77799 16.1819 4.1266 15.4722C3.47521 14.7625 3.14466 13.8097 3.22244 12.8472L4.02938 3.16386C4.05855 2.86247 3.9516 2.57082 3.74743 2.3472C3.54326 2.12359 3.26133 2.00692 2.95994 2.00692H1.27799C0.879384 2.00692 0.548828 1.67636 0.548828 1.27775C0.548828 0.87914 0.879384 0.548584 1.27799 0.548584H2.96967C3.67939 0.548584 4.35021 0.849973 4.8266 1.36525C5.0891 1.65692 5.28355 1.9972 5.3905 2.37636H17.5336C18.5155 2.37636 19.4197 2.76525 20.0808 3.46525C20.7322 4.17497 21.0627 5.09858 20.9849 6.08053L20.4599 13.3722C20.353 15.1514 18.7974 16.5903 17.0183 16.5903ZM5.43911 3.82497L4.68077 12.9639C4.63216 13.5278 4.81688 14.0625 5.19605 14.4805C5.57522 14.8986 6.10021 15.1222 6.6641 15.1222H17.0183C18.0294 15.1222 18.9433 14.2666 19.021 13.2555L19.411 7.84025H8.08355C7.68494 7.84025 7.35438 7.5097 7.35438 7.11108C7.35438 6.71247 7.68494 6.38192 8.08355 6.38192H19.516L19.5461 5.96387C19.5849 5.39026 19.4002 4.84582 19.021 4.4472C18.6419 4.03887 18.1169 3.81524 17.5433 3.81524H5.43911V3.82497ZM15.1322 21.4514C14.0627 21.4514 13.1877 20.5764 13.1877 19.5069C13.1877 18.4375 14.0627 17.5625 15.1322 17.5625C16.2016 17.5625 17.0766 18.4375 17.0766 19.5069C17.0766 20.5764 16.2016 21.4514 15.1322 21.4514ZM15.1322 19.0208C14.8599 19.0208 14.646 19.2347 14.646 19.5069C14.646 19.7791 14.8599 19.993 15.1322 19.993C15.4044 19.993 15.6183 19.7791 15.6183 19.5069C15.6183 19.2347 15.4044 19.0208 15.1322 19.0208ZM5.40994 19.5069C5.40994 20.5764 6.28494 21.4514 7.35438 21.4514C8.42383 21.4514 9.29883 20.5764 9.29883 19.5069C9.29883 18.4375 8.42383 17.5625 7.35438 17.5625C6.28494 17.5625 5.40994 18.4375 5.40994 19.5069ZM6.86827 19.5069C6.86827 19.2347 7.08216 19.0208 7.35438 19.0208C7.62661 19.0208 7.8405 19.2347 7.8405 19.5069C7.8405 19.7791 7.62661 19.993 7.35438 19.993C7.08216 19.993 6.86827 19.7791 6.86827 19.5069Z" fill="white"/>
</svg>
