<svg width="18" height="18" viewBox="0 0 18 18" fill="none" xmlns="http://www.w3.org/2000/svg">
<path fill-rule="evenodd" clip-rule="evenodd" d="M3.95905 5.59169H3.97572H4.03405L3.97572 4.96669L4.15072 5.59169C5.65072 5.54169 6.82572 4.32502 6.82572 2.81669C6.82572 1.29169 5.57572 0.041687 4.05072 0.041687C2.52572 0.041687 1.27572 1.29169 1.27572 2.82502C1.28405 4.32502 2.45905 5.54169 3.95905 5.59169ZM4.05906 4.34169H4.05905H4.05904C4.02571 4.34169 3.99238 4.34169 3.98405 4.35002C3.17572 4.30002 2.54238 3.64169 2.54238 2.82502C2.54238 1.98335 3.22572 1.30001 4.06738 1.30001C4.90905 1.30001 5.59238 1.98335 5.59238 2.82502C5.59238 3.65002 4.94238 4.31669 4.20072 4.35002C4.15072 4.34169 4.10906 4.34169 4.05906 4.34169ZM14.0006 5.5917H13.9339H13.8922C12.3172 5.5417 11.1422 4.32503 11.1422 2.82503C11.1422 1.2917 12.3922 0.0500287 13.9172 0.0500287C15.4422 0.0500287 16.6922 1.30003 16.6922 2.82503C16.6839 4.33336 15.5089 5.55003 14.0089 5.60003C14.0089 5.59586 14.0089 5.59378 14.0079 5.59274C14.0068 5.5917 14.0048 5.5917 14.0006 5.5917H14.0006ZM13.9172 1.2917C13.0756 1.2917 12.3922 1.97504 12.3922 2.8167C12.3922 3.6417 13.0339 4.30837 13.8589 4.3417C13.8672 4.33337 13.9339 4.33337 14.0089 4.3417C14.8172 4.30004 15.4422 3.63337 15.4506 2.8167C15.4506 1.97504 14.7672 1.2917 13.9172 1.2917ZM13.0341 11.6501C13.3591 11.7084 13.6841 11.7334 14.0091 11.7334C15.0341 11.7334 16.0174 11.4585 16.7757 10.9585C17.5174 10.4585 17.9341 9.7501 17.9341 9.00844C17.9341 8.25844 17.5091 7.55844 16.7757 7.0668C15.7757 6.40014 14.3674 6.14181 13.0091 6.38348C12.6674 6.44181 12.4424 6.76681 12.5007 7.10848C12.5591 7.4501 12.8841 7.68344 13.2257 7.61677C14.2591 7.43344 15.3591 7.6251 16.0841 8.10844C16.4674 8.36677 16.6841 8.68344 16.6841 9.00844C16.6841 9.33344 16.4757 9.65852 16.0841 9.91685C15.3591 10.4002 14.2757 10.5918 13.2507 10.4168C12.9091 10.3584 12.5841 10.5834 12.5257 10.9251C12.4674 11.2668 12.6924 11.5918 13.0341 11.6501ZM1.20033 10.9585C1.95866 11.4585 2.94199 11.7334 3.96699 11.7334C4.29199 11.7334 4.61699 11.7084 4.94199 11.6501C5.28366 11.5918 5.50866 11.2668 5.45033 10.9251C5.39199 10.5918 5.06699 10.3584 4.72533 10.4168C3.70033 10.5918 2.61699 10.4002 1.89199 9.91685C1.50866 9.65852 1.29199 9.33344 1.29199 9.00844C1.29199 8.68344 1.50033 8.36677 1.89199 8.10844C2.62533 7.6251 3.71699 7.43344 4.75033 7.61677C5.09199 7.68344 5.41699 7.4501 5.47533 7.10848C5.53366 6.76681 5.30866 6.44181 4.96699 6.38348C3.60866 6.14181 2.20033 6.40014 1.20033 7.0668C0.466992 7.55844 0.0419922 8.26677 0.0419922 9.00844C0.0419922 9.75844 0.466992 10.4669 1.20033 10.9585ZM8.93391 11.8167H9.00058C9.00891 11.8167 9.00891 11.8167 9.00891 11.825C10.5089 11.775 11.6839 10.5584 11.6922 9.05002C11.6922 7.52502 10.4422 6.275 8.91724 6.275C7.39224 6.275 6.14225 7.51669 6.14225 9.05002C6.14225 10.55 7.31725 11.7667 8.89224 11.8167H8.93391ZM7.39224 9.04169C7.39224 8.20002 8.07558 7.51669 8.91724 7.51669C9.76724 7.51669 10.4506 8.20835 10.4506 9.04169C10.4422 9.85835 9.81724 10.525 9.00891 10.5667C8.93391 10.5584 8.86724 10.5584 8.85891 10.5667C8.03391 10.5334 7.39224 9.86669 7.39224 9.04169ZM8.99974 17.9667C7.99974 17.9667 6.99974 17.7084 6.22474 17.1834C5.49141 16.6917 5.06641 15.9917 5.06641 15.2417C5.06641 14.5 5.48308 13.7834 6.22474 13.2917C7.78308 12.2584 10.2247 12.2584 11.7747 13.2917C12.5081 13.7834 12.9331 14.4834 12.9331 15.2334C12.9331 15.975 12.5164 16.6917 11.7747 17.1834C10.9997 17.7 9.99974 17.9667 8.99974 17.9667ZM6.91641 14.3417C6.52474 14.6 6.31641 14.925 6.31641 15.25C6.31641 15.575 6.53308 15.8917 6.91641 16.15C8.04141 16.9084 9.94974 16.9084 11.0747 16.15C11.4664 15.8917 11.6747 15.5667 11.6747 15.2417C11.6747 14.9167 11.4581 14.6 11.0747 14.3417C9.95808 13.5834 8.04974 13.5917 6.91641 14.3417Z" fill="white"/>
</svg>
