<svg width="16" height="18" viewBox="0 0 16 18" fill="none" xmlns="http://www.w3.org/2000/svg">
<path fill-rule="evenodd" clip-rule="evenodd" d="M8 9.62502C5.35833 9.62502 3.20833 7.47502 3.20833 4.83335C3.20833 2.19169 5.35833 0.041687 8 0.041687C10.6417 0.041687 12.7917 2.19169 12.7917 4.83335C12.7917 7.47502 10.6417 9.62502 8 9.62502ZM8 1.29169C6.05 1.29169 4.45833 2.88335 4.45833 4.83335C4.45833 6.78335 6.05 8.37502 8 8.37502C9.95 8.37502 11.5417 6.78335 11.5417 4.83335C11.5417 2.88335 9.95 1.29169 8 1.29169ZM14.5334 17.3334C14.5334 17.675 14.8167 17.9584 15.1584 17.9584C15.5001 17.9584 15.7834 17.675 15.7834 17.3334C15.7834 13.775 12.2918 10.875 8.00016 10.875C3.70846 10.875 0.216797 13.775 0.216797 17.3334C0.216797 17.675 0.50013 17.9584 0.841797 17.9584C1.18346 17.9584 1.4668 17.675 1.4668 17.3334C1.4668 14.4584 4.40012 12.125 8.00016 12.125C11.6002 12.125 14.5334 14.4584 14.5334 17.3334Z" fill="white"/>
</svg>
