<svg width="18" height="16" viewBox="0 0 18 16" fill="none" xmlns="http://www.w3.org/2000/svg">
<path fill-rule="evenodd" clip-rule="evenodd" d="M13.6332 15.7084H4.3665C1.04984 15.7084 0.0415039 14.7084 0.0415039 11.4251V5.08341V4.57508C0.0415039 1.29175 1.04984 0.291748 4.3665 0.291748H10.2498C10.5915 0.291748 10.8748 0.575081 10.8748 0.916748C10.8748 1.25841 10.5915 1.54175 10.2498 1.54175H4.3665C1.78973 1.54175 1.30598 1.97813 1.29183 4.45841H10.2498C10.5915 4.45841 10.8748 4.74175 10.8748 5.08341C10.8748 5.42508 10.5915 5.70841 10.2498 5.70841H1.2915V11.4167C1.2915 14.0001 1.74984 14.4501 4.3665 14.4501H13.6248C16.2415 14.4501 16.6998 14.0001 16.6998 11.4167V7.18341C16.6998 6.84175 16.9832 6.55841 17.3248 6.55841C17.6665 6.55841 17.9498 6.84175 17.9498 7.18341V11.4167C17.9582 14.7084 16.9498 15.7084 13.6332 15.7084ZM5.6665 12.3751H3.99984C3.65817 12.3751 3.37484 12.0917 3.37484 11.7501C3.37484 11.4084 3.65817 11.1251 3.99984 11.1251H5.6665C6.00817 11.1251 6.2915 11.4084 6.2915 11.7501C6.2915 12.0917 6.00817 12.3751 5.6665 12.3751ZM7.74984 12.3751H11.0832C11.4248 12.3751 11.7082 12.0917 11.7082 11.7501C11.7082 11.4084 11.4248 11.1251 11.0832 11.1251H7.74984C7.40817 11.1251 7.12484 11.4084 7.12484 11.7501C7.12484 12.0917 7.40817 12.3751 7.74984 12.3751ZM13.5578 4.6917C13.6828 4.8167 13.8411 4.87503 13.9994 4.87503C14.1578 4.87503 14.3161 4.8167 14.4411 4.6917L17.7744 1.35836C18.0161 1.1167 18.0161 0.716698 17.7744 0.475031C17.5328 0.233365 17.1328 0.233365 16.8911 0.475031L13.9994 3.3667L13.1911 2.55836C12.9494 2.3167 12.5494 2.3167 12.3078 2.55836C12.0661 2.80003 12.0661 3.20003 12.3078 3.4417L13.5578 4.6917Z" fill="#F386B6"/>
</svg>
