<svg width="14" height="16" viewBox="0 0 14 16" fill="none" xmlns="http://www.w3.org/2000/svg">
<path fill-rule="evenodd" clip-rule="evenodd" d="M7.00016 8.5209C4.79877 8.5209 3.0071 6.72923 3.0071 4.52785C3.0071 2.32646 4.79877 0.53479 7.00016 0.53479C9.20155 0.53479 10.9932 2.32646 10.9932 4.52785C10.9932 6.72923 9.20155 8.5209 7.00016 8.5209ZM7.00016 1.57646C5.37516 1.57646 4.04877 2.90285 4.04877 4.52785C4.04877 6.15285 5.37516 7.47924 7.00016 7.47924C8.62516 7.47924 9.95155 6.15285 9.95155 4.52785C9.95155 2.90285 8.62516 1.57646 7.00016 1.57646ZM12.4447 14.9445C12.4447 15.2292 12.6808 15.4653 12.9655 15.4653C13.2502 15.4653 13.4863 15.2292 13.4863 14.9445C13.4863 11.9792 10.5767 9.56257 7.0003 9.56257C3.42388 9.56257 0.51416 11.9792 0.51416 14.9445C0.51416 15.2292 0.750271 15.4653 1.03499 15.4653C1.31972 15.4653 1.55583 15.2292 1.55583 14.9445C1.55583 12.5487 4.00026 10.6042 7.0003 10.6042C10.0003 10.6042 12.4447 12.5487 12.4447 14.9445Z" fill="white"/>
</svg>
